<svg xmlns="http://www.w3.org/2000/svg" viewBox="0 0 38.51 38.51" id="threads"><defs><linearGradient id="a" x1="3.65" x2="34.85" y1=".66" y2="37.84" gradientUnits="userSpaceOnUse"><stop offset="0" stop-color="#ffe185"></stop><stop offset=".21" stop-color="#ffbb36"></stop><stop offset=".38" stop-color="#ff5176"></stop><stop offset=".52" stop-color="#f63395"></stop><stop offset=".74" stop-color="#a436d2"></stop><stop offset="1" stop-color="#5f4eed"></stop></linearGradient></defs><g style="isolation:isolate"><g><g><g><rect width="38.51" height="38.51" fill="url(#a)" rx="6.97" ry="6.97"></rect><path d="M38.51,31.54v-12.3c-3.51-3.51-7.02-7.02-10.53-10.53-2.09-2.07-4.95-3.14-8.51-3.16h-.02c-4.01.03-7.1,1.38-9.17,4.01-1.85,2.34-2.79,5.6-2.82,9.69h0v.03c.03,4.08.98,7.35,2.83,9.69.28.35.58.68.9.99,2.85,2.85,5.71,5.71,8.56,8.56h11.8c3.83,0,6.97-3.14,6.97-6.97Z" style="mix-blend-mode:multiply" fill="#ad36cc"></path><path fill="#fff" d="M25.45,18.09c.13.05.24.11.36.16,1.67.81,2.89,2.01,3.53,3.51.9,2.09.98,5.47-1.73,8.18-2.07,2.07-4.59,3-8.15,3.03h-.02c-4.01-.03-7.09-1.38-9.16-4.01-1.85-2.34-2.79-5.6-2.83-9.69v-.02h0c.03-4.1.98-7.36,2.82-9.7,2.07-2.63,5.16-3.98,9.17-4.01h.02c4.02.03,7.14,1.37,9.27,3.99,1.05,1.3,1.83,2.86,2.32,4.67l-2.31.62c-.41-1.47-1.02-2.73-1.84-3.74-1.67-2.05-4.17-3.1-7.46-3.12-3.26.03-5.72,1.07-7.32,3.11-1.5,1.9-2.27,4.66-2.3,8.18.03,3.52.81,6.28,2.3,8.19,1.6,2.03,4.07,3.08,7.32,3.11,2.94-.02,4.88-.72,6.5-2.34,1.85-1.84,1.81-4.1,1.22-5.48-.35-.81-.98-1.49-1.82-1.99-.21,1.54-.67,2.76-1.41,3.7-.98,1.25-2.37,1.92-4.15,2.02-1.35.07-2.64-.25-3.65-.91-1.19-.79-1.89-1.99-1.96-3.39-.14-2.76,2.04-4.74,5.44-4.94,1.21-.07,2.34-.02,3.38.16-.14-.85-.42-1.52-.83-2.01-.57-.67-1.46-1.01-2.64-1.02h-.04c-.95,0-2.23.26-3.04,1.5l-1.97-1.35c1.1-1.66,2.87-2.58,5.02-2.58h.05c3.58.02,5.71,2.26,5.92,6.15h-.01s0,.01,0,.01ZM16.54,22.02c.07,1.43,1.62,2.1,3.12,2.02,1.46-.08,3.12-.65,3.4-4.18-.75-.17-1.59-.25-2.48-.25-.27,0-.55,0-.82.02-2.45.14-3.27,1.33-3.21,2.39h0Z"></path></g></g></g></g></svg>